<?xml version="1.0" standalone="no"?>
<!DOCTYPE svg PUBLIC "-//W3C//DTD SVG 20010904//EN"
 "http://www.w3.org/TR/2001/REC-SVG-20010904/DTD/svg10.dtd">
<svg version="1.0" xmlns="http://www.w3.org/2000/svg"
 width="330.000000pt" height="330.000000pt" viewBox="0 0 330.000000 330.000000"
 preserveAspectRatio="xMidYMid meet">
<metadata>
Created by potrace 1.11, written by Peter Selinger 2001-2013
</metadata>
<g transform="translate(0.000000,330.000000) scale(0.100000,-0.100000)"
fill="#000000" stroke="none">
<path d="M139 3041 l-23 -18 162 -388 c97 -233 158 -393 153 -399 -4 -6 -68
-128 -141 -271 -73 -143 -160 -311 -192 -373 -44 -83 -58 -120 -54 -137 4 -15
30 -40 66 -65 33 -22 60 -44 60 -48 0 -4 -38 -108 -85 -231 -63 -165 -85 -235
-85 -270 0 -55 -4 -53 140 -101 104 -35 649 -225 935 -325 584 -205 558 -197
590 -187 17 6 75 26 130 45 148 52 484 170 880 307 626 218 605 210 611 237 5
17 -15 82 -64 211 -39 103 -82 217 -95 253 l-25 66 64 43 c38 25 64 51 67 64
3 21 -16 60 -249 511 -148 287 -150 290 -135 318 6 12 78 184 161 382 l150
360 -22 17 c-32 24 -40 23 -72 -14 -15 -18 -54 -60 -85 -93 -31 -33 -108 -116
-173 -185 -64 -69 -145 -156 -180 -193 l-63 -68 -288 141 -288 141 -362 -3
-362 -3 -279 -139 c-239 -119 -280 -137 -290 -124 -6 8 -65 73 -131 143 -66
70 -133 142 -150 160 -158 171 -239 255 -245 255 -4 0 -18 -8 -31 -19z m336
-406 c62 -66 135 -143 162 -172 29 -31 70 -61 103 -76 30 -13 89 -40 130 -60
232 -108 378 -175 396 -181 11 -3 58 -54 105 -112 46 -58 89 -111 95 -118 5
-6 38 -46 72 -89 l62 -78 0 -210 c0 -115 -1 -209 -2 -209 -2 0 -30 9 -63 19
-70 22 -53 2 -283 328 l-171 241 -111 69 c-61 37 -129 80 -153 95 -23 15 -51
32 -62 37 -11 6 -72 43 -135 83 l-115 73 -53 125 c-73 174 -72 171 -72 176 0
3 -9 24 -19 47 -10 23 -38 87 -60 142 l-41 100 51 -55 c28 -30 102 -109 164
-175z m2415 -72 l-121 -289 -292 -182 c-258 -161 -296 -187 -325 -231 -18 -26
-102 -147 -188 -267 l-155 -219 -62 -22 c-34 -13 -64 -23 -67 -23 -3 0 -5 94
-5 208 l0 209 42 54 c23 30 93 117 155 193 l113 140 186 85 c476 220 409 180
550 332 19 20 86 92 149 159 63 67 119 129 123 137 5 8 11 12 13 10 3 -2 -50
-135 -116 -294z m-1025 95 c-22 -23 -44 -47 -50 -53 -5 -7 -48 -53 -95 -104
l-84 -93 -18 22 c-10 13 -58 66 -106 118 -48 52 -91 100 -97 106 -44 49 -59
46 226 46 l263 0 -39 -42z m-509 -45 c38 -43 94 -105 125 -138 31 -33 73 -79
94 -102 39 -45 85 -58 102 -29 4 7 51 60 103 116 52 57 103 112 113 124 10 12
36 40 58 63 l40 43 57 -28 c31 -16 143 -71 249 -122 l192 -94 -82 -39 c-45
-21 -102 -48 -127 -59 -222 -101 -345 -161 -354 -172 -235 -295 -289 -357
-301 -345 -7 8 -75 93 -153 189 l-140 175 -99 44 c-108 49 -283 130 -382 176
l-64 31 244 121 c134 67 247 122 250 122 3 1 37 -34 75 -76z m1384 -483 c-11
-58 -40 -209 -45 -235 -1 -11 -6 -44 -10 -73 -4 -29 -12 -55 -17 -58 -10 -6
-488 -8 -494 -2 -2 2 16 28 39 57 35 43 84 79 287 205 135 84 246 152 247 152
1 -1 -2 -21 -7 -46z m-1948 -118 c222 -138 248 -157 280 -205 l35 -52 -250 2
c-137 1 -251 3 -252 5 -2 2 -9 33 -14 68 -6 36 -13 76 -16 90 -3 14 -8 41 -11
60 -3 19 -12 66 -20 103 -16 79 -17 90 -6 85 5 -1 119 -72 254 -156z m-318 64
c4 -28 13 -79 21 -115 7 -36 16 -86 20 -111 4 -24 8 -47 10 -50 2 -3 6 -25 10
-49 6 -39 26 -68 172 -238 91 -106 168 -193 172 -194 14 -2 178 -7 349 -10
112 -2 186 -7 191 -14 4 -5 48 -151 96 -323 l88 -313 35 3 35 3 91 319 91 320
70 2 c39 2 161 5 273 7 111 3 204 6 205 8 8 11 124 145 133 154 6 6 33 37 60
70 27 33 65 77 84 98 44 49 57 73 64 123 4 22 9 51 11 64 3 14 14 72 25 130
29 159 32 172 40 163 4 -4 56 -102 115 -218 60 -115 134 -260 166 -322 l58
-112 -297 -199 c-163 -110 -398 -267 -522 -350 -124 -84 -229 -155 -235 -159
-5 -5 -113 -77 -239 -162 l-228 -153 -217 145 c-915 615 -1278 860 -1290 872
-11 11 -4 31 47 127 32 62 106 203 162 313 98 191 120 229 125 223 2 -2 6 -25
9 -52z m683 -395 c15 -10 213 -294 209 -298 -4 -5 -117 -4 -344 1 -62 2 -117
7 -121 12 -80 91 -241 283 -241 287 0 8 485 6 497 -2z m1451 -9 c-8 -10 -41
-48 -73 -87 -33 -38 -71 -83 -85 -99 -14 -17 -39 -45 -56 -64 l-31 -35 -119
-3 c-175 -5 -336 -6 -339 -2 -2 2 31 51 74 109 42 59 90 127 108 153 l32 45
251 0 c233 -1 250 -2 238 -17z m-2143 -521 c94 -62 174 -118 180 -122 6 -6 -2
-20 -21 -37 -192 -172 -239 -212 -245 -212 -4 0 -9 15 -12 33 -5 28 -81 405
-91 449 -3 12 0 15 8 10 6 -4 88 -58 181 -121z m1101 114 c63 -19 89 -19 148
1 26 9 49 14 52 11 6 -5 -112 -430 -125 -455 -4 -7 -28 63 -54 155 -26 92 -55
198 -66 236 -11 37 -16 67 -12 67 4 0 30 -7 57 -15z m1434 -2 c0 -5 -7 -42
-16 -83 -9 -41 -18 -84 -20 -95 -2 -11 -6 -31 -9 -45 -3 -14 -7 -34 -9 -45 -3
-11 -14 -64 -25 -119 -12 -54 -21 -100 -21 -103 0 -2 -17 11 -37 30 -21 19
-84 76 -141 127 l-103 93 183 123 c180 121 198 131 198 117z m-2740 -281 c26
-127 42 -221 36 -219 -6 2 -61 21 -123 42 l-111 39 33 90 c86 234 110 294 114
283 2 -7 25 -112 51 -235z m2886 45 c37 -97 65 -179 62 -182 -6 -7 -232 -84
-235 -81 -2 1 10 65 26 142 17 76 32 150 34 164 18 95 32 149 38 142 4 -4 38
-87 75 -185z m-2391 -253 c30 -98 55 -182 55 -186 0 -4 -37 7 -82 24 -46 16
-131 46 -191 66 -59 20 -106 40 -105 43 2 4 52 50 111 103 59 53 117 105 129
116 12 11 23 18 25 17 1 -2 27 -84 58 -183z m1961 65 c68 -61 124 -115 124
-119 0 -4 -8 -10 -17 -13 -10 -2 -95 -32 -190 -65 -94 -33 -170 -55 -168 -49
3 11 44 144 93 305 8 28 20 52 25 52 5 0 65 -50 133 -111z m-1642 -107 c-1 -7
-176 -142 -184 -142 -3 0 -25 64 -49 143 -70 232 -81 219 88 105 80 -54 146
-102 145 -106z m1370 37 c-29 -94 -55 -173 -58 -176 -2 -3 -48 28 -100 68
l-95 73 152 102 c84 57 153 103 153 103 1 1 -22 -76 -52 -170z m-196 -169 c46
-34 82 -63 80 -65 -10 -7 -280 -97 -283 -94 -2 2 20 57 48 121 33 78 54 115
61 109 6 -4 48 -36 94 -71z m-1095 33 c8 -21 31 -74 50 -118 l34 -80 -143 48
c-79 27 -144 52 -143 56 1 9 162 130 175 130 7 1 19 -16 27 -36z m272 -129
c102 -69 195 -127 206 -129 14 -3 85 39 212 125 105 71 193 127 195 126 1 -2
-19 -53 -45 -114 l-48 -111 -145 -50 c-80 -28 -153 -51 -162 -51 -17 0 -270
85 -297 100 -9 5 -25 30 -35 57 -19 48 -65 152 -73 166 -9 15 11 3 192 -119z"/>
</g>
</svg>
